<?xml version="1.0" standalone="no"?>
<!DOCTYPE svg PUBLIC "-//W3C//DTD SVG 20010904//EN"
 "http://www.w3.org/TR/2001/REC-SVG-20010904/DTD/svg10.dtd">
<svg version="1.0" xmlns="http://www.w3.org/2000/svg"
 width="512.000000pt" height="512.000000pt" viewBox="0 0 512.000000 512.000000"
 preserveAspectRatio="xMidYMid meet">

<g transform="translate(0.000000,512.000000) scale(0.100000,-0.100000)"
fill="#000000" stroke="none">
<path d="M3951 4334 c-12 -15 -21 -31 -21 -36 0 -16 28 -63 49 -82 l21 -19
-35 -38 c-39 -44 -43 -67 -17 -100 28 -34 75 -30 115 9 l33 32 23 -24 c45 -48
107 -51 130 -7 18 32 13 54 -20 94 l-31 37 31 36 c36 40 39 76 11 104 -29 29
-69 25 -106 -11 l-33 -32 -38 32 c-47 39 -84 40 -112 5z"/>
<path d="M2190 4324 c-14 -2 -59 -9 -100 -15 -158 -22 -411 -103 -561 -179
-219 -112 -439 -287 -596 -473 -630 -752 -598 -1841 75 -2548 192 -202 420
-356 687 -465 l80 -32 3 -63 c5 -103 -5 -99 274 -99 l239 0 17 30 c16 29 20
30 85 30 49 0 67 -4 67 -13 0 -8 8 -21 18 -30 16 -15 49 -17 254 -17 274 0
265 -3 270 99 l3 63 80 32 c240 98 446 230 625 402 l85 82 100 4 c77 3 111 10
147 27 62 30 121 88 155 153 l28 53 3 258 3 257 128 0 c115 0 132 2 172 23
125 66 145 235 40 330 -44 40 -106 57 -206 57 l-65 0 0 115 c0 302 -62 578
-190 844 -270 558 -774 942 -1389 1057 -82 15 -470 29 -531 18z m371 -134
c542 -55 1016 -343 1316 -802 197 -300 301 -676 285 -1030 l-3 -67 -37 -6
c-93 -16 -136 -38 -198 -99 -92 -92 -97 -111 -102 -403 l-4 -243 -431 0 -430
0 -66 64 -66 63 100 6 c55 3 127 13 160 22 84 22 208 83 283 140 l63 47 37
-25 c20 -14 58 -46 84 -71 51 -50 74 -56 109 -28 51 42 12 123 -96 197 -40 28
-54 43 -49 54 18 43 34 107 34 135 -1 37 -8 47 -82 110 -32 26 -55 52 -52 57
8 14 165 10 209 -6 53 -19 84 -19 107 2 23 21 24 75 1 95 -38 33 -125 53 -234
53 l-107 0 -11 50 c-6 27 -28 87 -47 132 l-36 83 19 52 c28 83 25 267 -6 382
-32 115 -107 266 -142 285 -24 14 -34 13 -106 -11 -113 -38 -197 -90 -288
-182 l-80 -80 -260 3 c-205 2 -276 -1 -334 -13 l-74 -15 -20 27 c-11 15 -53
59 -93 98 -82 80 -193 144 -293 170 -57 14 -64 14 -87 0 -30 -21 -93 -145
-129 -256 -53 -164 -44 -371 19 -486 l23 -42 -31 -95 -31 -94 -75 -6 c-96 -7
-177 -35 -204 -70 -19 -26 -19 -30 -6 -54 26 -45 42 -49 117 -31 100 25 127
28 143 17 16 -10 16 -9 -94 -106 -38 -33 -39 -35 -33 -89 3 -30 17 -79 30
-108 l25 -55 -34 -26 c-44 -33 -94 -102 -94 -127 0 -26 44 -68 71 -68 13 0 39
18 63 43 82 85 77 84 133 41 60 -46 189 -109 268 -129 33 -9 105 -19 160 -22
l100 -6 -69 -66 c-122 -117 -199 -260 -232 -429 -21 -112 -16 -258 13 -355 4
-15 -13 -10 -86 28 -556 287 -920 841 -960 1457 -41 644 255 1245 789 1600
338 225 752 328 1151 288z m-861 -935 c28 -14 83 -57 123 -94 l71 -68 -44 -23
c-79 -40 -165 -106 -243 -189 -42 -46 -79 -77 -82 -71 -4 6 -11 39 -15 73 -15
101 9 225 67 359 28 64 24 63 123 13z m1481 -154 c11 -44 19 -108 19 -159 l0
-85 -67 64 c-83 79 -115 102 -217 155 l-79 41 44 43 c50 49 125 99 184 123
l40 16 28 -62 c16 -33 37 -94 48 -136z m-605 -71 c183 -19 322 -82 453 -205
114 -107 204 -261 225 -386 6 -33 4 -36 -60 -79 -70 -46 -124 -109 -124 -143
0 -30 39 -67 71 -67 19 0 42 15 77 49 l51 50 38 -37 c21 -21 53 -50 71 -64 32
-27 32 -28 18 -63 -8 -19 -16 -35 -18 -35 -2 0 -35 7 -73 15 -104 22 -190 20
-215 -5 -25 -25 -26 -61 -2 -90 14 -17 33 -24 90 -30 40 -4 75 -10 78 -13 9
-8 -97 -64 -166 -88 -53 -18 -94 -23 -218 -27 l-153 -4 -22 -30 c-107 -141
-155 -168 -308 -168 -98 0 -110 2 -167 31 -42 20 -71 44 -89 71 -16 22 -39 53
-51 69 l-24 29 -121 0 c-149 0 -236 18 -334 67 -87 42 -83 48 40 59 40 4 84
13 98 20 37 18 46 60 21 93 -19 25 -24 26 -108 25 -76 -1 -169 -18 -229 -40
-11 -5 -21 7 -36 41 -11 26 -19 48 -17 49 1 1 31 26 66 55 44 38 62 60 62 77
0 43 36 27 127 -58 62 -57 99 -63 132 -22 12 15 21 36 21 47 0 32 -124 147
-196 182 l-62 31 23 71 c89 281 348 491 645 522 108 12 281 12 386 1z m1904
-900 c25 -25 26 -72 3 -93 -15 -12 -50 -16 -180 -19 -227 -4 -207 28 -213
-342 l-5 -294 -31 -39 c-60 -75 -47 -73 -526 -73 -336 0 -428 3 -428 13 0 6
-11 36 -25 65 l-24 52 431 0 c429 0 432 0 455 22 23 21 23 22 23 287 0 156 4
282 11 304 13 47 77 113 121 126 18 5 108 10 201 10 154 1 169 -1 187 -19z
m-2360 -595 c75 -51 135 -65 270 -65 136 0 195 14 271 65 l52 36 39 -28 c87
-60 169 -178 215 -308 25 -72 28 -93 27 -210 0 -97 -4 -145 -17 -187 -10 -32
-22 -58 -26 -58 -4 0 -16 9 -25 19 -10 11 -38 28 -62 38 -33 13 -46 25 -50 43
-43 211 -180 353 -364 378 -236 33 -431 -119 -484 -378 -4 -18 -17 -30 -50
-43 -24 -10 -52 -27 -62 -38 -9 -10 -21 -19 -25 -19 -17 0 -41 109 -46 210 -8
171 31 304 130 437 37 49 136 143 152 143 2 0 26 -16 55 -35z m386 -434 c78
-35 149 -126 169 -218 6 -30 4 -33 -17 -33 -68 -1 -158 -74 -186 -152 l-17
-48 -67 0 -67 0 -11 41 c-20 73 -120 158 -187 159 -27 0 -27 3 -9 62 51 172
232 259 392 189z m1094 25 c0 -2 -33 -31 -73 -64 -98 -81 -217 -160 -328 -217
-73 -38 -90 -43 -86 -28 16 52 27 146 27 225 l0 88 230 0 c127 0 230 -2 230
-4z m-1445 -441 c18 -18 25 -35 25 -65 l0 -40 -136 0 -137 0 7 42 c4 24 17 53
28 65 19 20 31 23 105 23 76 0 86 -2 108 -25z m683 2 c11 -12 24 -41 28 -65
l7 -42 -137 0 -136 0 0 40 c0 30 7 47 25 65 22 23 32 25 108 25 74 0 86 -3
105 -23z"/>
<path d="M1865 2605 c-58 -57 -21 -97 138 -150 109 -37 120 -39 144 -25 15 8
31 28 36 44 17 50 -13 74 -143 118 -63 21 -123 38 -133 38 -10 0 -29 -11 -42
-25z"/>
<path d="M2736 2591 c-125 -43 -157 -70 -140 -118 5 -15 21 -34 36 -43 25 -14
35 -12 144 24 159 52 197 94 139 151 -31 32 -48 31 -179 -14z"/>
<path d="M2260 2353 c-34 -12 -60 -47 -60 -79 0 -26 10 -41 55 -82 43 -40 55
-57 55 -81 0 -57 -16 -80 -65 -92 -72 -18 -96 -77 -49 -123 23 -24 93 -20 145
7 l43 23 41 -23 c51 -29 124 -31 148 -5 26 29 22 77 -9 101 -15 12 -37 21 -50
21 -31 0 -54 36 -54 87 0 32 4 43 19 48 29 9 101 92 101 115 0 67 -51 90 -197
89 -59 0 -115 -3 -123 -6z"/>
<path d="M1027 4303 c-18 -5 -47 -51 -47 -76 0 -8 9 -26 21 -41 43 -55 129
-23 129 48 0 53 -46 84 -103 69z"/>
<path d="M4149 1081 c-52 -42 -17 -131 52 -131 40 0 69 32 69 75 0 65 -70 97
-121 56z"/>
</g>
</svg>
